<svg xmlns="http://www.w3.org/2000/svg" viewBox="0 0 1200 800">
  <defs>
    <linearGradient id="bg" x1="0" y1="0" x2="1" y2="1">
      <stop offset="0%" stop-color="#dbe1ea"/>
      <stop offset="100%" stop-color="#f8fafc"/>
    </linearGradient>
  </defs>
  <rect width="1200" height="800" fill="url(#bg)"/>
  <circle cx="900" cy="180" r="150" fill="#fff" opacity=".45"/>
  <path d="M180 520c70-190 268-290 450-248 111 25 198 94 255 184" fill="none" stroke="#4d6278" stroke-width="24" stroke-linecap="round"/>
  <path d="M330 575c0-102 82-184 184-184 52 0 99 22 132 56l-64 70h114v-114l-44 48c-44-44-104-71-173-71-136 0-247 111-247 247" fill="#7e93a7"/>
  <path d="M860 235c-24 0-42 22-42 50 0 56 66 85 66 126 0-41 66-70 66-126 0-28-18-50-42-50-10 0-19 4-24 12-5-8-14-12-24-12Z" fill="#7d4b1f"/>
</svg>
